# xmcd
#
# Track frame offsets:
#	150
#	15670
#	31892
#	53440
#	96880
#
# Disc length: 1516 seconds
#
# Revision: 0
# Processed by: cddbd v1.4PL0 Copyright (c) Steve Scherf et al.
# Submitted via: audiograbber 1.81.00
#
DISCID=2e05ea05
DTITLE=Angunn - Still reminds me (maxi)
DYEAR=1900
DGENRE=pop
TTITLE0=Still reminds me (special radio edit)
TTITLE1=Still reminds me (Jason Nevins midtempo radio edit)
TTITLE2=Still reminds me (Jason Nevins uptempo radio remix)
TTITLE3=Still reminds me (Jason Nevins club mix)
TTITLE4=Snow on the Sahara (special radio edit)
EXTD=
EXTT0=
EXTT1=
EXTT2=
EXTT3=
EXTT4=
PLAYORDER=
